<svg xmlns="http://www.w3.org/2000/svg" xmlns:xlink="http://www.w3.org/1999/xlink" width="500" zoomAndPan="magnify" viewBox="0 0 375 374.999991" height="500" preserveAspectRatio="xMidYMid meet" version="1.0"><defs><clipPath id="426e02b0a9"><path d="M 123 50.269531 L 310 50.269531 L 310 274 L 123 274 Z M 123 50.269531 " clip-rule="nonzero"/></clipPath><clipPath id="3282e3ee74"><path d="M 120 143 L 310 143 L 310 324.769531 L 120 324.769531 Z M 120 143 " clip-rule="nonzero"/></clipPath><clipPath id="4ae4a5d9fb"><path d="M 64.851562 52.699219 L 158 52.699219 L 158 146 L 64.851562 146 Z M 64.851562 52.699219 " clip-rule="nonzero"/></clipPath><clipPath id="56b6365d62"><path d="M 108 118 L 180.351562 118 L 180.351562 270.949219 L 108 270.949219 Z M 108 118 " clip-rule="nonzero"/></clipPath></defs><g clip-path="url(#426e02b0a9)"><path fill="#ffffff" d="M 309.445312 143.144531 C 308.738281 92.398438 267.296875 50.984375 216.511719 50.277344 C 215.738281 50.265625 214.964844 50.265625 214.195312 50.273438 C 153.792969 50.882812 110.964844 109.605469 127.476562 167.671875 L 157.601562 273.582031 L 157.601562 145.261719 C 157.601562 113.667969 182.769531 87.386719 214.382812 86.964844 C 246.925781 86.53125 273.371094 113.082031 272.726562 145.648438 C 272.105469 177.035156 245.933594 202.359375 214.519531 202.011719 C 199.621094 201.847656 186.09375 196.019531 175.960938 186.589844 C 195.699219 219.753906 290.941406 237.578125 309.445312 143.144531 " fill-opacity="1" fill-rule="nonzero"/></g><g clip-path="url(#3282e3ee74)"><path fill="#ffffff" d="M 175.960938 186.589844 C 175.960938 186.589844 181.625 303.933594 120.882812 324.773438 C 120.882812 324.773438 183.4375 320.84375 201.203125 237.671875 C 205.761719 238.347656 210.421875 238.707031 215.167969 238.707031 C 267.6875 238.707031 310.179688 195.792969 309.445312 143.144531 C 290.941406 237.578125 195.699219 219.753906 175.960938 186.589844 " fill-opacity="1" fill-rule="nonzero"/></g><g clip-path="url(#4ae4a5d9fb)"><path fill="#000000" d="M 108.015625 96.25 L 157.246094 145.546875 L 157.246094 71.59375 L 108.015625 71.59375 L 108.015625 86.722656 C 85.851562 72.78125 64.851562 52.847656 64.851562 52.847656 L 108.015625 96.074219 Z M 108.015625 96.25 " fill-opacity="1" fill-rule="nonzero"/></g><g clip-path="url(#56b6365d62)"><path fill="#000000" d="M 155.011719 165.925781 L 108.015625 118.863281 L 108.015625 270.824219 L 157.246094 270.824219 L 157.246094 173.128906 C 169.136719 180.640625 180.351562 191.289062 180.351562 191.289062 L 155.03125 165.933594 Z M 155.011719 165.925781 " fill-opacity="1" fill-rule="nonzero"/></g><path fill="#ffffff" d="M 150.488281 129.210938 L 114.773438 93.445312 L 114.773438 78.363281 L 150.488281 78.363281 Z M 116.703125 92.644531 L 148.558594 124.542969 L 148.558594 80.300781 L 116.703125 80.300781 Z M 116.703125 92.644531 " fill-opacity="1" fill-rule="nonzero"/><path fill="#ffffff" d="M 150.488281 264.0625 L 114.773438 264.0625 L 114.773438 135.203125 L 150.488281 170.96875 Z M 116.703125 262.128906 L 148.558594 262.128906 L 148.558594 171.769531 L 116.703125 139.867188 Z M 116.703125 262.128906 " fill-opacity="1" fill-rule="nonzero"/></svg>